<svg xmlns="http://www.w3.org/2000/svg" xmlns:xlink="http://www.w3.org/1999/xlink" width="500" zoomAndPan="magnify" viewBox="0 0 375 374.999991" height="500" preserveAspectRatio="xMidYMid meet" version="1.0"><defs><clipPath id="d6abe3b67e"><path d="M 7.03125 0 L 365 0 L 365 372 L 7.03125 372 Z M 7.03125 0 " clip-rule="nonzero"/></clipPath></defs><g clip-path="url(#d6abe3b67e)"><path fill="#ffffff" d="M 159.210938 0 C 118.863281 0 80.171875 16.027344 51.640625 44.558594 C 23.109375 73.085938 7.082031 111.78125 7.082031 152.128906 C 7.082031 192.476562 23.109375 231.167969 51.640625 259.699219 C 80.171875 288.230469 118.863281 304.257812 159.210938 304.257812 C 184.542969 304.121094 209.4375 297.664062 231.636719 285.46875 L 306.328125 361.40625 C 319.515625 374.8125 340.925781 374.992188 354.335938 361.804688 C 367.742188 348.613281 367.917969 327.203125 354.730469 313.796875 L 282.621094 240.480469 C 301.171875 214.746094 311.214844 183.855469 311.339844 152.128906 C 311.339844 111.78125 295.3125 73.085938 266.78125 44.558594 C 238.253906 16.027344 199.558594 0 159.210938 0 Z M 160.949219 44.234375 C 187.910156 44.234375 213.765625 55.445312 232.828125 75.402344 C 251.890625 95.359375 262.601562 122.425781 262.601562 150.648438 C 262.53125 181.234375 249.898438 210.3125 227.914062 230.464844 C 227.425781 230.894531 226.9375 231.339844 226.46875 231.804688 C 226.203125 232.066406 225.949219 232.335938 225.695312 232.601562 C 207.488281 248.390625 184.59375 257.039062 160.949219 257.0625 C 133.992188 257.0625 108.136719 245.851562 89.074219 225.894531 C 70.011719 205.9375 59.300781 178.871094 59.300781 150.648438 C 59.300781 122.425781 70.011719 95.359375 89.074219 75.402344 C 108.136719 55.445312 133.992188 44.234375 160.949219 44.234375 Z M 160.949219 44.234375 " fill-opacity="1" fill-rule="evenodd"/><path fill="#ffffff" d="M 159.210938 0 C 118.863281 0 80.171875 16.027344 51.640625 44.558594 C 23.109375 73.085938 7.082031 111.78125 7.082031 152.128906 C 7.082031 192.476562 23.109375 231.167969 51.640625 259.699219 C 80.171875 288.230469 118.863281 304.257812 159.210938 304.257812 C 184.542969 304.121094 209.4375 297.664062 231.636719 285.46875 L 306.328125 361.40625 C 319.515625 374.8125 340.925781 374.992188 354.335938 361.804688 C 367.742188 348.613281 367.917969 327.203125 354.730469 313.796875 L 282.621094 240.480469 C 301.171875 214.746094 311.214844 183.855469 311.339844 152.128906 C 311.339844 111.78125 295.3125 73.085938 266.78125 44.558594 C 238.253906 16.027344 199.558594 0 159.210938 0 Z M 160.949219 44.234375 C 187.910156 44.234375 213.765625 55.445312 232.828125 75.402344 C 251.890625 95.359375 262.601562 122.425781 262.601562 150.648438 C 262.53125 181.234375 249.898438 210.3125 227.914062 230.464844 C 227.425781 230.894531 226.9375 231.339844 226.46875 231.804688 C 226.203125 232.066406 225.949219 232.335938 225.695312 232.601562 C 207.488281 248.390625 184.59375 257.039062 160.949219 257.0625 C 133.992188 257.0625 108.136719 245.851562 89.074219 225.894531 C 70.011719 205.9375 59.300781 178.871094 59.300781 150.648438 C 59.300781 122.425781 70.011719 95.359375 89.074219 75.402344 C 108.136719 55.445312 133.992188 44.234375 160.949219 44.234375 Z M 160.949219 44.234375 " fill-opacity="1" fill-rule="evenodd"/></g></svg>